HIERARCHY
ROOT RootJoint
{
    OFFSET   0.000000   0.000000   0.000000
    CHANNELS 6 Xposition Yposition Zposition Xrotation Yrotation Zrotation
    JOINT pelvis_lowerback
    {
        OFFSET   0.000000   0.093605   0.000000
        CHANNELS 3 Xrotation Yrotation Zrotation
        JOINT lowerback_torso
        {
            OFFSET   0.000000   0.100000   0.000000
            CHANNELS 3 Xrotation Yrotation Zrotation
            JOINT torso_head
            {
                OFFSET   0.000000   0.282350   0.000000
                CHANNELS 3 Xrotation Yrotation Zrotation
                End Site
                {
                    OFFSET   0.000000   0.192650   0.000000
                }
            }
            JOINT rTorso_Clavicle
            {
                OFFSET  -0.001000   0.157500   0.000000
                CHANNELS 3 Xrotation Yrotation Zrotation
                JOINT rShoulder
                {
                    OFFSET  -0.117647   0.000000   0.000000
                    CHANNELS 3 Xrotation Yrotation Zrotation
                    JOINT rElbow
                    {
                        OFFSET  -0.245000   0.000000   0.000000
                        CHANNELS 3 Xrotation Yrotation Zrotation
                        JOINT rWrist
                        {
                            OFFSET  -0.240000   0.000000   0.000000
                            CHANNELS 3 Xrotation Yrotation Zrotation
                            End Site
                            {
                                OFFSET  -0.116353  -0.002500   0.000000
                            }
                        }
                    }
                }
            }
            JOINT lTorso_Clavicle
            {
                OFFSET   0.001000   0.157500   0.000000
                CHANNELS 3 Xrotation Yrotation Zrotation
                JOINT lShoulder
                {
                    OFFSET   0.117647   0.000000   0.000000
                    CHANNELS 3 Xrotation Yrotation Zrotation
                    JOINT lElbow
                    {
                        OFFSET   0.245000   0.000000   0.000000
                        CHANNELS 3 Xrotation Yrotation Zrotation
                        JOINT lWrist
                        {
                            OFFSET   0.240000   0.000000   0.000000
                            CHANNELS 3 Xrotation Yrotation Zrotation
                            End Site
                            {
                                OFFSET   0.116353  -0.002500   0.000000
                            }
                        }
                    }
                }
            }
        }
    }
    JOINT rHip
    {
        OFFSET  -0.100000  -0.051395   0.000000
        CHANNELS 3 Xrotation Yrotation Zrotation
        JOINT rKnee
        {
            OFFSET   0.000000  -0.410000   0.000000
            CHANNELS 3 Xrotation Yrotation Zrotation
            JOINT rAnkle
            {
                OFFSET   0.000000  -0.390000   0.000000
                CHANNELS 3 Xrotation Yrotation Zrotation
                JOINT rToeJoint
                {
                    OFFSET   0.000000  -0.050000   0.130000
                    CHANNELS 3 Xrotation Yrotation Zrotation
                    End Site
                    {
                        OFFSET  -0.010000   0.002000   0.060000
                    }
                }
            }
        }
    }
    JOINT lHip
    {
        OFFSET   0.100000  -0.051395   0.000000
        CHANNELS 3 Xrotation Yrotation Zrotation
        JOINT lKnee
        {
            OFFSET   0.000000  -0.410000   0.000000
            CHANNELS 3 Xrotation Yrotation Zrotation
            JOINT lAnkle
            {
                OFFSET   0.000000  -0.390000   0.000000
                CHANNELS 3 Xrotation Yrotation Zrotation
                JOINT lToeJoint
                {
                    OFFSET   0.000000  -0.050000   0.130000
                    CHANNELS 3 Xrotation Yrotation Zrotation
                    End Site
                    {
                        OFFSET   0.010000   0.002000   0.060000
                    }
                }
            }
        }
    }
}
MOTION
Frames: 7
Frame Time:   0.008333
 -0.864576   1.035356   3.545502 150.543764   9.414246 175.772079  10.131142   5.322907   5.833298   1.280638   7.780087  -3.297778   9.395341  -3.847476   6.131848  12.023348  -1.062782 -20.760880  25.179689  -6.408362  27.981503 179.996565  63.334577 -179.991506  -7.917125  10.995559 -11.389016  21.504019  18.582617  12.933861  13.674643  11.986332 -19.315413  -0.041061 -88.634144  -0.039215 -22.797289 -12.933035   4.536931 -109.133178   0.101444 -13.261913 131.600529  -0.003132   0.000849 -31.233877 -18.220860   6.598662 -11.440861  -0.000914  -0.001161 -46.006691   7.114306   4.263761  15.505310  -0.036475  -0.015335  52.963721   1.121078  16.601359 -38.160323   0.014326   0.008662
 -0.861577   1.034069   3.539464 150.797688   9.671671 176.254244  10.245692   5.724879   5.483711   1.716565   8.068662  -3.478998   9.248398  -3.691001   6.137306  11.814601  -1.081104 -20.654631  25.465720  -6.672517  27.397224 -179.995896  64.039747 -179.995598  -7.910194  11.252539 -10.988400  21.419466  18.944151  12.987303  14.474092  12.513573 -19.435158  -0.066840 -88.470201  -0.065216 -22.909753 -12.805367   4.246336 -108.646972  -0.328872 -13.019642 132.236881  -0.006325   0.002746 -30.978274 -18.080469   6.649350 -11.493344  -0.000565  -0.000862 -46.466122   7.730396   3.024320  13.625196  -0.047613  -0.009953  53.477331   1.401450  17.104798 -37.731265   0.012028   0.006506
 -0.858521   1.031641   3.533003 151.088915  10.050676 176.697869  10.299693   6.139899   5.174087   2.112235   8.386974  -3.670281   9.109543  -3.532749   6.145783  11.634995  -1.169278 -20.623221  25.763491  -6.984393  26.819031 -179.991834  64.742548 -179.996878  -7.971609  11.280988 -10.515978  21.365696  19.369775  13.026320  15.271370  13.062243 -19.576401  -0.080940 -88.275201  -0.079332 -23.014941 -12.614720   3.814184 -108.285263  -0.742200 -12.746459 133.031871  -0.009901   0.004312 -30.738215 -17.948516   6.696703 -11.573564  -0.000220  -0.000538 -46.775800   8.284466   1.969593  11.813451  -0.054326  -0.004697  53.975244   1.678735  17.574692 -37.214099   0.009933   0.004442
 -0.855425   1.028229   3.526232 151.413574  10.481523 177.111390  10.322519   6.539137   4.893703   2.458152   8.703411  -3.858411   8.977954  -3.384959   6.155124  11.467327  -1.288258 -20.626240  26.048782  -7.309240  26.269690 -179.990888  65.409902 -179.996097  -8.050640  11.210537 -10.081536  21.319671  19.817094  13.055755  16.036643  13.604277 -19.728573  -0.082099 -88.080471  -0.080394 -23.114099 -12.413896   3.358535 -108.003211  -1.113165 -12.495615 133.851287  -0.012912   0.005194 -30.513804 -17.825612   6.740321 -11.658946   0.000066  -0.000229 -46.990628   8.798982   1.040719  10.136455  -0.057473  -0.000572  54.438147   1.943177  18.011475 -36.734045   0.008101   0.002777
 -0.852280   1.023927   3.519212 151.768256  10.936830 177.496924  10.321228   6.915023   4.638103   2.760261   9.006455  -4.037414   8.852877  -3.247492   6.164673  11.308759  -1.418222 -20.643837  26.315726  -7.630423  25.754084 -179.992100  66.036780 -179.994102  -8.129877  11.106059  -9.693707  21.276982  20.259783  13.080709  16.761659  14.124263 -19.884466  -0.075876 -87.893883  -0.074032 -23.207587 -12.219152   2.915819 -107.777484  -1.443189 -12.276359 134.642073  -0.015114   0.005518 -30.304897 -17.711145   6.780401 -11.743530   0.000300   0.000043 -47.131609   9.278819   0.210748   8.591368  -0.058086   0.002474  54.869073   2.194709  18.417274 -36.292695   0.006554   0.001497
 -0.849076   1.018796   3.511983 152.149720  11.402195 177.855609  10.300112   7.264342   4.404691   3.023994   9.290853  -4.204948   8.733521  -3.119656   6.174127  11.158792  -1.549652 -20.667005  26.563406  -7.940249  25.272566 -179.994653  66.623148 -179.991500  -8.204660  10.993505  -9.343900  21.236408  20.684691  13.104071  17.444174  14.615264 -20.039494  -0.066221 -87.718282  -0.064240 -23.295798 -12.034434   2.495056 -107.594732  -1.737639 -12.086920 135.385649  -0.016532   0.005481 -30.110705 -17.604441   6.817278 -11.824785   0.000488   0.000266 -47.212456   9.726073  -0.536751   7.167677  -0.056956   0.004647  55.270348   2.433501  18.794318 -35.887419   0.005266   0.000541
 -0.845801   1.012879   3.504577 152.554911  11.869090 178.188749  10.262584   7.585820   4.191419   3.253892   9.554076  -4.360561   8.619378  -3.000797   6.183359  11.017191  -1.678358 -20.691643  26.792563  -8.235581  24.823935 -179.997934  67.170568 -179.988701  -8.274009  10.883300  -9.024143  21.197550  21.085690  13.127073  18.084423  15.074728 -20.191024  -0.055482 -87.554579  -0.053386 -23.379093 -11.860345   2.097808 -107.446360  -2.001741 -11.922750 136.077350  -0.017283   0.005240 -29.930262 -17.504891   6.851269 -11.901673   0.000637   0.000438 -47.243837  10.142408  -1.213502   5.854927  -0.054660   0.006151  55.644047   2.659829  19.144713 -35.515387   0.004203  -0.000156
